{"asset":{"version":"2.0","generator":"Blockbench 5.0.7 glTF exporter"},"scenes":[{"nodes":[1,3,5,7,9,11],"name":"blockbench_export"}],"scene":0,"nodes":[{"name":"left_leg"},{"translation":[-0.09375,0.3125,0.03125],"name":"left_leg","mesh":0,"children":[0],"skin":0},{"name":"right_leg"},{"translation":[-0.09375,0.3125,0.03125],"name":"right_leg","mesh":1,"children":[2],"skin":1},{"name":"head"},{"translation":[-0.09375,0.3125,0.03125],"name":"head","mesh":2,"children":[4],"skin":2},{"name":"body"},{"translation":[-0.09375,0.3125,0.03125],"name":"body","mesh":3,"children":[6],"skin":3},{"name":"right_hand"},{"translation":[-0.09375,0.3125,0.03125],"name":"right_hand","mesh":4,"children":[8],"skin":4},{"name":"left_hand"},{"translation":[-0.09375,0.3125,0.03125],"name":"left_hand","mesh":5,"children":[10],"skin":5}],"bufferViews":[{"buffer":0,"byteOffset":0,"byteLength":288,"target":34962,"byteStride":12},{"buffer":0,"byteOffset":288,"byteLength":288,"target":34962,"byteStride":12},{"buffer":0,"byteOffset":576,"byteLength":192,"target":34962,"byteStride":8},{"buffer":0,"byteOffset":768,"byteLength":192,"target":34962,"byteStride":8},{"buffer":0,"byteOffset":960,"byteLength":384,"target":34962,"byteStride":16},{"buffer":0,"byteOffset":1344,"byteLength":72,"target":34963},{"buffer":0,"byteOffset":1416,"byteLength":288,"target":34962,"byteStride":12},{"buffer":0,"byteOffset":1704,"byteLength":288,"target":34962,"byteStride":12},{"buffer":0,"byteOffset":1992,"byteLength":192,"target":34962,"byteStride":8},{"buffer":0,"byteOffset":2184,"byteLength":192,"target":34962,"byteStride":8},{"buffer":0,"byteOffset":2376,"byteLength":384,"target":34962,"byteStride":16},{"buffer":0,"byteOffset":2760,"byteLength":72,"target":34963},{"buffer":0,"byteOffset":2832,"byteLength":288,"target":34962,"byteStride":12},{"buffer":0,"byteOffset":3120,"byteLength":288,"target":34962,"byteStride":12},{"buffer":0,"byteOffset":3408,"byteLength":192,"target":34962,"byteStride":8},{"buffer":0,"byteOffset":3600,"byteLength":192,"target":34962,"byteStride":8},{"buffer":0,"byteOffset":3792,"byteLength":384,"target":34962,"byteStride":16},{"buffer":0,"byteOffset":4176,"byteLength":72,"target":34963},{"buffer":0,"byteOffset":4248,"byteLength":288,"target":34962,"byteStride":12},{"buffer":0,"byteOffset":4536,"byteLength":288,"target":34962,"byteStride":12},{"buffer":0,"byteOffset":4824,"byteLength":192,"target":34962,"byteStride":8},{"buffer":0,"byteOffset":5016,"byteLength":192,"target":34962,"byteStride":8},{"buffer":0,"byteOffset":5208,"byteLength":384,"target":34962,"byteStride":16},{"buffer":0,"byteOffset":5592,"byteLength":72,"target":34963},{"buffer":0,"byteOffset":5664,"byteLength":288,"target":34962,"byteStride":12},{"buffer":0,"byteOffset":5952,"byteLength":288,"target":34962,"byteStride":12},{"buffer":0,"byteOffset":6240,"byteLength":192,"target":34962,"byteStride":8},{"buffer":0,"byteOffset":6432,"byteLength":192,"target":34962,"byteStride":8},{"buffer":0,"byteOffset":6624,"byteLength":384,"target":34962,"byteStride":16},{"buffer":0,"byteOffset":7008,"byteLength":72,"target":34963},{"buffer":0,"byteOffset":7080,"byteLength":288,"target":34962,"byteStride":12},{"buffer":0,"byteOffset":7368,"byteLength":288,"target":34962,"byteStride":12},{"buffer":0,"byteOffset":7656,"byteLength":192,"target":34962,"byteStride":8},{"buffer":0,"byteOffset":7848,"byteLength":192,"target":34962,"byteStride":8},{"buffer":0,"byteOffset":8040,"byteLength":384,"target":34962,"byteStride":16},{"buffer":0,"byteOffset":8424,"byteLength":72,"target":34963},{"buffer":0,"byteOffset":8496,"byteLength":64},{"buffer":0,"byteOffset":8560,"byteLength":64},{"buffer":0,"byteOffset":8624,"byteLength":64},{"buffer":0,"byteOffset":8688,"byteLength":64},{"buffer":0,"byteOffset":8752,"byteLength":64},{"buffer":0,"byteOffset":8816,"byteLength":64}],"buffers":[{"byteLength":8880,"uri":"data:application/octet-stream;base64,"}],"accessors":[{"bufferView":0,"componentType":5126,"count":24,"max":[0.09375,0.4375,0.15625],"min":[-0.15625,-0.3125,-0.09375],"type":"VEC3"},{"bufferView":1,"componentType":5126,"count":24,"max":[1,1,1],"min":[-1,-1,-1],"type":"VEC3"},{"bufferView":2,"componentType":5126,"count":24,"max":[0.249755859375,0.702880859375],"min":[0.000244140625,0.453369140625],"type":"VEC2"},{"bufferView":3,"componentType":5123,"count":24,"max":[0,0,0,0],"min":[0,0,0,0],"type":"VEC4"},{"bufferView":4,"componentType":5126,"count":24,"max":[0,1,0,0],"min":[0,1,0,0],"type":"VEC4"},{"bufferView":5,"componentType":5123,"count":36,"max":[23],"min":[0],"type":"SCALAR"},{"bufferView":6,"componentType":5126,"count":24,"max":[0.34375,0.4375,0.15625],"min":[0.09375,-0.3125,-0.09375],"type":"VEC3"},{"bufferView":7,"componentType":5126,"count":24,"max":[1,1,1],"min":[-1,-1,-1],"type":"VEC3"},{"bufferView":8,"componentType":5126,"count":24,"max":[0.499755859375,0.718505859375],"min":[0.250244140625,0.468994140625],"type":"VEC2"},{"bufferView":9,"componentType":5123,"count":24,"max":[0,0,0,0],"min":[0,0,0,0],"type":"VEC4"},{"bufferView":10,"componentType":5126,"count":24,"max":[0,1,0,0],"min":[0,1,0,0],"type":"VEC4"},{"bufferView":11,"componentType":5123,"count":36,"max":[23],"min":[0],"type":"SCALAR"},{"bufferView":12,"componentType":5126,"count":24,"max":[0.3125,1.5625,0.21875],"min":[-0.125,1.125,-0.21875],"type":"VEC3"},{"bufferView":13,"componentType":5126,"count":24,"max":[1,1,1],"min":[-1,-1,-1],"type":"VEC3"},{"bufferView":14,"componentType":5126,"count":24,"max":[0.437255859375,0.218505859375],"min":[0.000244140625,0.000244140625],"type":"VEC2"},{"bufferView":15,"componentType":5123,"count":24,"max":[0,0,0,0],"min":[0,0,0,0],"type":"VEC4"},{"bufferView":16,"componentType":5126,"count":24,"max":[0,1,0,0],"min":[0,1,0,0],"type":"VEC4"},{"bufferView":17,"componentType":5123,"count":36,"max":[23],"min":[0],"type":"SCALAR"},{"bufferView":18,"componentType":5126,"count":24,"max":[0.34375,1.125,0.15625],"min":[-0.15625,0.4375,-0.09375],"type":"VEC3"},{"bufferView":19,"componentType":5126,"count":24,"max":[1,1,1],"min":[-1,-1,-1],"type":"VEC3"},{"bufferView":20,"componentType":5126,"count":24,"max":[0.374755859375,0.452880859375],"min":[0.000244140625,0.218994140625],"type":"VEC2"},{"bufferView":21,"componentType":5123,"count":24,"max":[0,0,0,0],"min":[0,0,0,0],"type":"VEC4"},{"bufferView":22,"componentType":5126,"count":24,"max":[0,1,0,0],"min":[0,1,0,0],"type":"VEC4"},{"bufferView":23,"componentType":5123,"count":36,"max":[23],"min":[0],"type":"SCALAR"},{"bufferView":24,"componentType":5126,"count":24,"max":[0.96875,1.125,0.15625],"min":[0.34375,0.875,-0.09375],"type":"VEC3"},{"bufferView":25,"componentType":5126,"count":24,"max":[1,1,1],"min":[-1,-1,-1],"type":"VEC3"},{"bufferView":26,"componentType":5126,"count":24,"max":[0.812255859375,0.343505859375],"min":[0.375244140625,0.218994140625],"type":"VEC2"},{"bufferView":27,"componentType":5123,"count":24,"max":[0,0,0,0],"min":[0,0,0,0],"type":"VEC4"},{"bufferView":28,"componentType":5126,"count":24,"max":[0,1,0,0],"min":[0,1,0,0],"type":"VEC4"},{"bufferView":29,"componentType":5123,"count":36,"max":[23],"min":[0],"type":"SCALAR"},{"bufferView":30,"componentType":5126,"count":24,"max":[-0.15625,1.125,0.15625],"min":[-0.78125,0.875,-0.09375],"type":"VEC3"},{"bufferView":31,"componentType":5126,"count":24,"max":[1,1,1],"min":[-1,-1,-1],"type":"VEC3"},{"bufferView":32,"componentType":5126,"count":24,"max":[0.812255859375,0.468505859375],"min":[0.375244140625,0.343994140625],"type":"VEC2"},{"bufferView":33,"componentType":5123,"count":24,"max":[0,0,0,0],"min":[0,0,0,0],"type":"VEC4"},{"bufferView":34,"componentType":5126,"count":24,"max":[0,1,0,0],"min":[0,1,0,0],"type":"VEC4"},{"bufferView":35,"componentType":5123,"count":36,"max":[23],"min":[0],"type":"SCALAR"},{"bufferView":36,"componentType":5126,"count":1,"max":[1,0,0,0,0,1,0,0,0,0,1,0,0,0,0,1],"min":[1,0,0,0,0,1,0,0,0,0,1,0,0,0,0,1],"type":"MAT4"},{"bufferView":37,"componentType":5126,"count":1,"max":[1,0,0,0,0,1,0,0,0,0,1,0,0,0,0,1],"min":[1,0,0,0,0,1,0,0,0,0,1,0,0,0,0,1],"type":"MAT4"},{"bufferView":38,"componentType":5126,"count":1,"max":[1,0,0,0,0,1,0,0,0,0,1,0,0,0,0,1],"min":[1,0,0,0,0,1,0,0,0,0,1,0,0,0,0,1],"type":"MAT4"},{"bufferView":39,"componentType":5126,"count":1,"max":[1,0,0,0,0,1,0,0,0,0,1,0,0,0,0,1],"min":[1,0,0,0,0,1,0,0,0,0,1,0,0,0,0,1],"type":"MAT4"},{"bufferView":40,"componentType":5126,"count":1,"max":[1,0,0,0,0,1,0,0,0,0,1,0,0,0,0,1],"min":[1,0,0,0,0,1,0,0,0,0,1,0,0,0,0,1],"type":"MAT4"},{"bufferView":41,"componentType":5126,"count":1,"max":[1,0,0,0,0,1,0,0,0,0,1,0,0,0,0,1],"min":[1,0,0,0,0,1,0,0,0,0,1,0,0,0,0,1],"type":"MAT4"}],"materials":[{"pbrMetallicRoughness":{"metallicFactor":0,"roughnessFactor":1,"baseColorTexture":{"index":0}},"alphaMode":"MASK","alphaCutoff":0.05,"doubleSided":true}],"textures":[{"sampler":0,"source":0,"name":"Plauyer"}],"samplers":[{"magFilter":9728,"minFilter":9728,"wrapS":33071,"wrapT":33071}],"images":[{"mimeType":"image/png","uri":"data:image/png;base64,"}],"meshes":[{"primitives":[{"mode":4,"attributes":{"POSITION":0,"NORMAL":1,"TEXCOORD_0":2,"JOINTS_0":3,"WEIGHTS_0":4},"indices":5,"material":0}]},{"primitives":[{"mode":4,"attributes":{"POSITION":6,"NORMAL":7,"TEXCOORD_0":8,"JOINTS_0":9,"WEIGHTS_0":10},"indices":11,"material":0}]},{"primitives":[{"mode":4,"attributes":{"POSITION":12,"NORMAL":13,"TEXCOORD_0":14,"JOINTS_0":15,"WEIGHTS_0":16},"indices":17,"material":0}]},{"primitives":[{"mode":4,"attributes":{"POSITION":18,"NORMAL":19,"TEXCOORD_0":20,"JOINTS_0":21,"WEIGHTS_0":22},"indices":23,"material":0}]},{"primitives":[{"mode":4,"attributes":{"POSITION":24,"NORMAL":25,"TEXCOORD_0":26,"JOINTS_0":27,"WEIGHTS_0":28},"indices":29,"material":0}]},{"primitives":[{"mode":4,"attributes":{"POSITION":30,"NORMAL":31,"TEXCOORD_0":32,"JOINTS_0":33,"WEIGHTS_0":34},"indices":35,"material":0}]}],"skins":[{"inverseBindMatrices":36,"joints":[0],"skeleton":0},{"inverseBindMatrices":37,"joints":[2],"skeleton":2},{"inverseBindMatrices":38,"joints":[4],"skeleton":4},{"inverseBindMatrices":39,"joints":[6],"skeleton":6},{"inverseBindMatrices":40,"joints":[8],"skeleton":8},{"inverseBindMatrices":41,"joints":[10],"skeleton":10}]}